<mxfile host="app.diagrams.net" modified="2023-07-21T16:29:21.639Z" agent="Mozilla/5.0 (X11; Linux aarch64; rv:109.0) Gecko/20100101 Firefox/114.0" version="21.6.5" etag="meXVVASqsZYpFNIlYxF3" type="github">
  <diagram name="Page-1" id="5CO4ip2rxpBhKFdbrPA1">
    <mxGraphModel>
      <root>
        <mxCell id="0" />
        <mxCell id="1" parent="0" />
      </root>
    </mxGraphModel>
  </diagram>
</mxfile>
